<svg width="24" height="24" viewBox="0 0 24 24" fill="none" xmlns="http://www.w3.org/2000/svg">
<path d="M12.0808 13.314L17.0308 8.364C17.123 8.26849 17.2334 8.19231 17.3554 8.1399C17.4774 8.08749 17.6086 8.05991 17.7414 8.05875C17.8741 8.0576 18.0058 8.0829 18.1287 8.13318C18.2516 8.18346 18.3633 8.25772 18.4572 8.35161C18.5511 8.4455 18.6253 8.55715 18.6756 8.68005C18.7259 8.80295 18.7512 8.93463 18.75 9.06741C18.7489 9.20018 18.7213 9.3314 18.6689 9.45341C18.6165 9.57541 18.5403 9.68576 18.4448 9.778L12.7878 15.435C12.6002 15.6225 12.3459 15.7278 12.0808 15.7278C11.8156 15.7278 11.5613 15.6225 11.3738 15.435L5.71676 9.778C5.62125 9.68576 5.54507 9.57541 5.49266 9.45341C5.44025 9.3314 5.41267 9.20018 5.41151 9.06741C5.41036 8.93463 5.43566 8.80295 5.48594 8.68005C5.53622 8.55715 5.61048 8.4455 5.70437 8.35161C5.79826 8.25772 5.90991 8.18346 6.03281 8.13318C6.15571 8.0829 6.28739 8.0576 6.42017 8.05875C6.55294 8.05991 6.68416 8.08749 6.80617 8.1399C6.92817 8.19231 7.03852 8.26849 7.13076 8.364L12.0808 13.314Z" fill="#0F172A"/>
</svg>
