<svg width="14" height="10" viewBox="0 0 14 10" fill="none" xmlns="http://www.w3.org/2000/svg">
<path d="M5.48599 9.74613C5.35472 9.7464 5.2247 9.72074 5.10337 9.67063C4.98204 9.62052 4.87181 9.54695 4.77899 9.45413L0.536988 5.21113C0.441415 5.11895 0.365157 5.00866 0.312663 4.88669C0.26017 4.76473 0.232492 4.63353 0.231245 4.50075C0.229999 4.36797 0.255208 4.23628 0.305401 4.11335C0.355595 3.99042 0.429769 3.87871 0.523594 3.78475C0.61742 3.6908 0.729018 3.61646 0.851878 3.5661C0.974737 3.51573 1.1064 3.49033 1.23918 3.49139C1.37196 3.49245 1.50319 3.51994 1.62523 3.57226C1.74727 3.62458 1.85767 3.70069 1.94999 3.79613L5.48499 7.33113L11.85 0.968129C12.0375 0.780489 12.2919 0.675021 12.5571 0.674927C12.8224 0.674833 13.0768 0.780121 13.2645 0.967629C13.4521 1.15514 13.5576 1.40951 13.5577 1.67478C13.5578 1.94005 13.4525 2.19449 13.265 2.38213L6.19299 9.45413C6.10017 9.54695 5.98993 9.62052 5.86861 9.67063C5.74728 9.72074 5.61725 9.7464 5.48599 9.74613Z" fill="#0F172A"/>
</svg>
